<mxfile host="Electron" modified="2023-09-07T14:20:23.539Z" agent="Mozilla/5.0 (Windows NT 10.0; Win64; x64) AppleWebKit/537.36 (KHTML, like Gecko) draw.io/21.6.5 Chrome/114.0.5735.243 Electron/25.3.1 Safari/537.36" etag="ahkj-VUaW_zyQeeT8Bju" version="21.6.5" type="device">
  <diagram name="Page-1" id="2YBvvXClWsGukQMizWep">
    <mxGraphModel dx="1418" dy="828" grid="1" gridSize="10" guides="1" tooltips="1" connect="1" arrows="1" fold="1" page="1" pageScale="1" pageWidth="827" pageHeight="1169" math="0" shadow="0">
      <root>
        <mxCell id="0" />
        <mxCell id="1" parent="0" />
        <mxCell id="W77suZBvIUtIeTAz82X7-1" value=":關注商品頁面" style="shape=umlLifeline;perimeter=lifelinePerimeter;whiteSpace=wrap;html=1;container=0;dropTarget=0;collapsible=0;recursiveResize=0;outlineConnect=0;portConstraint=eastwest;newEdgeStyle={&quot;edgeStyle&quot;:&quot;elbowEdgeStyle&quot;,&quot;elbow&quot;:&quot;vertical&quot;,&quot;curved&quot;:0,&quot;rounded&quot;:0};" vertex="1" parent="1">
          <mxGeometry x="185" y="60" width="100" height="470" as="geometry" />
        </mxCell>
        <mxCell id="W77suZBvIUtIeTAz82X7-2" value="" style="html=1;points=[];perimeter=orthogonalPerimeter;outlineConnect=0;targetShapes=umlLifeline;portConstraint=eastwest;newEdgeStyle={&quot;edgeStyle&quot;:&quot;elbowEdgeStyle&quot;,&quot;elbow&quot;:&quot;vertical&quot;,&quot;curved&quot;:0,&quot;rounded&quot;:0};" vertex="1" parent="W77suZBvIUtIeTAz82X7-1">
          <mxGeometry x="45" y="70" width="10" height="290" as="geometry" />
        </mxCell>
        <mxCell id="W77suZBvIUtIeTAz82X7-3" value="" style="shape=umlLifeline;perimeter=lifelinePerimeter;whiteSpace=wrap;html=1;container=1;dropTarget=0;collapsible=0;recursiveResize=0;outlineConnect=0;portConstraint=eastwest;newEdgeStyle={&quot;edgeStyle&quot;:&quot;elbowEdgeStyle&quot;,&quot;elbow&quot;:&quot;vertical&quot;,&quot;curved&quot;:0,&quot;rounded&quot;:0};participant=umlActor;size=60;" vertex="1" parent="1">
          <mxGeometry x="50" y="50" width="30" height="480" as="geometry" />
        </mxCell>
        <mxCell id="W77suZBvIUtIeTAz82X7-4" value="點選關注清單" style="html=1;verticalAlign=bottom;endArrow=block;edgeStyle=elbowEdgeStyle;elbow=vertical;curved=0;rounded=0;" edge="1" parent="1" source="W77suZBvIUtIeTAz82X7-3" target="W77suZBvIUtIeTAz82X7-2">
          <mxGeometry width="80" relative="1" as="geometry">
            <mxPoint x="64.81034482758616" y="139.9968965517242" as="sourcePoint" />
            <mxPoint x="230" y="139.9968965517242" as="targetPoint" />
            <Array as="points">
              <mxPoint x="150" y="130" />
            </Array>
          </mxGeometry>
        </mxCell>
        <mxCell id="W77suZBvIUtIeTAz82X7-5" value=":關注商品資料庫" style="shape=umlLifeline;perimeter=lifelinePerimeter;whiteSpace=wrap;html=1;container=0;dropTarget=0;collapsible=0;recursiveResize=0;outlineConnect=0;portConstraint=eastwest;newEdgeStyle={&quot;edgeStyle&quot;:&quot;elbowEdgeStyle&quot;,&quot;elbow&quot;:&quot;vertical&quot;,&quot;curved&quot;:0,&quot;rounded&quot;:0};" vertex="1" parent="1">
          <mxGeometry x="370" y="60" width="120" height="470" as="geometry" />
        </mxCell>
        <mxCell id="W77suZBvIUtIeTAz82X7-6" value="" style="html=1;points=[];perimeter=orthogonalPerimeter;outlineConnect=0;targetShapes=umlLifeline;portConstraint=eastwest;newEdgeStyle={&quot;edgeStyle&quot;:&quot;elbowEdgeStyle&quot;,&quot;elbow&quot;:&quot;vertical&quot;,&quot;curved&quot;:0,&quot;rounded&quot;:0};" vertex="1" parent="W77suZBvIUtIeTAz82X7-5">
          <mxGeometry x="55" y="100" width="10" height="80" as="geometry" />
        </mxCell>
        <mxCell id="W77suZBvIUtIeTAz82X7-7" value="載入會員的關注商品列表" style="html=1;verticalAlign=bottom;endArrow=block;edgeStyle=elbowEdgeStyle;elbow=vertical;curved=0;rounded=0;" edge="1" parent="1" source="W77suZBvIUtIeTAz82X7-2" target="W77suZBvIUtIeTAz82X7-6">
          <mxGeometry width="80" relative="1" as="geometry">
            <mxPoint x="240" y="159.99724137931034" as="sourcePoint" />
            <mxPoint x="423" y="160.14" as="targetPoint" />
            <Array as="points">
              <mxPoint x="340" y="160" />
            </Array>
          </mxGeometry>
        </mxCell>
        <mxCell id="W77suZBvIUtIeTAz82X7-8" value="傳回關注商品資料" style="html=1;verticalAlign=bottom;endArrow=open;dashed=1;endSize=8;edgeStyle=elbowEdgeStyle;elbow=horizontal;curved=0;rounded=0;" edge="1" parent="1" source="W77suZBvIUtIeTAz82X7-6" target="W77suZBvIUtIeTAz82X7-2">
          <mxGeometry x="-0.027" relative="1" as="geometry">
            <mxPoint x="240" y="240" as="targetPoint" />
            <Array as="points">
              <mxPoint x="335" y="240" />
            </Array>
            <mxPoint x="430" y="240" as="sourcePoint" />
            <mxPoint as="offset" />
          </mxGeometry>
        </mxCell>
        <mxCell id="W77suZBvIUtIeTAz82X7-9" value="顯示關注列表" style="html=1;verticalAlign=bottom;endArrow=open;dashed=1;endSize=8;edgeStyle=elbowEdgeStyle;elbow=horizontal;curved=0;rounded=0;" edge="1" parent="1" source="W77suZBvIUtIeTAz82X7-2" target="W77suZBvIUtIeTAz82X7-3">
          <mxGeometry x="0.0909" relative="1" as="geometry">
            <mxPoint x="70" y="260" as="targetPoint" />
            <Array as="points">
              <mxPoint x="150" y="270" />
            </Array>
            <mxPoint x="235" y="260" as="sourcePoint" />
            <mxPoint as="offset" />
          </mxGeometry>
        </mxCell>
        <mxCell id="W77suZBvIUtIeTAz82X7-10" value="點選任一條目" style="html=1;verticalAlign=bottom;endArrow=block;edgeStyle=elbowEdgeStyle;elbow=vertical;curved=0;rounded=0;" edge="1" parent="1">
          <mxGeometry width="80" relative="1" as="geometry">
            <mxPoint x="64.81034482758605" y="340.0000000000001" as="sourcePoint" />
            <mxPoint x="230" y="340.0000000000001" as="targetPoint" />
            <Array as="points">
              <mxPoint x="155" y="340" />
            </Array>
          </mxGeometry>
        </mxCell>
        <mxCell id="W77suZBvIUtIeTAz82X7-11" value="顯示其詳細資訊&lt;br&gt;(歷史/目前價格)" style="html=1;verticalAlign=bottom;endArrow=open;dashed=1;endSize=8;edgeStyle=elbowEdgeStyle;elbow=horizontal;curved=0;rounded=0;" edge="1" parent="1" source="W77suZBvIUtIeTAz82X7-2" target="W77suZBvIUtIeTAz82X7-3">
          <mxGeometry x="0.0909" relative="1" as="geometry">
            <mxPoint x="75" y="410" as="targetPoint" />
            <Array as="points">
              <mxPoint x="160" y="410" />
            </Array>
            <mxPoint x="240" y="410" as="sourcePoint" />
            <mxPoint as="offset" />
          </mxGeometry>
        </mxCell>
      </root>
    </mxGraphModel>
  </diagram>
</mxfile>
